<svg width="24" height="25" viewBox="0 0 24 25" fill="none" xmlns="http://www.w3.org/2000/svg">
<path d="M20 21.8333H4C3.26667 21.8333 2.66667 21.2333 2.66667 20.5V4.5C2.66667 3.76667 3.26667 3.16667 4 3.16667H20C20.7333 3.16667 21.3333 3.76667 21.3333 4.5V20.5C21.3333 21.2333 20.7333 21.8333 20 21.8333ZM21.3333 0.5H2.66667C1.2 0.5 0 1.7 0 3.16667V21.8333C0 23.3 1.2 24.5 2.66667 24.5H21.3333C22.8 24.5 24 23.3 24 21.8333V3.16667C24 1.7 22.8 0.5 21.3333 0.5Z" fill="#FFF2F0" fill-opacity="0.6"/>
</svg>
