<svg width="25" height="24" viewBox="0 0 25 24" fill="none" xmlns="http://www.w3.org/2000/svg">
<g clip-path="url(#clip0_24_9814)">
<path d="M2.81898 9.85889L10.1193 17.6514L6.6039 9.85889H2.81898ZM12.334 18.9052L16.4236 9.85889H8.24441L12.334 18.9052ZM6.63905 8.359L9.02951 3.85928H5.9594L2.58462 8.359H6.63904H6.63905ZM14.5487 17.6514L21.849 9.85889H18.0641L14.5487 17.6514ZM8.33815 8.359H16.3298L13.9393 3.85928H10.7286L8.33815 8.359ZM18.0289 8.359H22.0833L18.7086 3.85928H15.6385L18.0289 8.359ZM19.6812 2.66405L24.1809 8.66366C24.2902 8.80429 24.341 8.96638 24.3332 9.14996C24.3254 9.33354 24.259 9.49173 24.134 9.62453L12.8847 21.6238C12.7441 21.78 12.5605 21.8581 12.334 21.8581C12.1074 21.8581 11.9239 21.78 11.7832 21.6238L0.533971 9.62454C0.40898 9.49173 0.342578 9.33354 0.334766 9.14996C0.326953 8.96638 0.377734 8.80429 0.487109 8.66366L4.98681 2.66406C5.12743 2.46094 5.32664 2.35938 5.58443 2.35938H19.0835C19.3413 2.35938 19.5405 2.46092 19.6812 2.66405Z" fill="#FFF2F0"/>
</g>
<defs>
<clipPath id="clip0_24_9814">
<rect width="24" height="24" fill="white" transform="translate(0.333984)"/>
</clipPath>
</defs>
</svg>
