<svg width="33" height="32" viewBox="0 0 33 32" fill="none" xmlns="http://www.w3.org/2000/svg">
<path d="M23.5 16C23.5 19.866 20.366 23 16.5 23C12.634 23 9.5 19.866 9.5 16C9.5 12.134 12.634 9 16.5 9C20.366 9 23.5 12.134 23.5 16Z" fill="#30312C" fill-opacity="0.08"/>
<path fill-rule="evenodd" clip-rule="evenodd" d="M16.5 3C16.5 3 19.1442 3 21.5605 4.02201C21.5605 4.02201 23.8936 5.00884 25.6924 6.80761C25.6924 6.80761 27.4912 8.60638 28.478 10.9395C28.478 10.9395 29.5 13.3558 29.5 16C29.5 16 29.5 18.6442 28.478 21.0605C28.478 21.0605 27.4912 23.3936 25.6924 25.1924C25.6924 25.1924 23.8936 26.9912 21.5605 27.978C21.5605 27.978 19.1442 29 16.5 29C16.5 29 13.8558 29 11.4395 27.978C11.4395 27.978 9.10638 26.9912 7.30761 25.1924C7.30761 25.1924 5.50884 23.3936 4.52202 21.0605C4.52202 21.0605 3.5 18.6442 3.5 16C3.5 16 3.5 13.3558 4.52202 10.9395C4.52202 10.9395 5.50885 8.60638 7.30761 6.80761C7.30761 6.80761 9.10638 5.00884 11.4395 4.02201C11.4395 4.02201 13.8558 3 16.5 3ZM16.5 5C16.5 5 14.2614 5 12.2186 5.86402C12.2186 5.86402 10.2448 6.69889 8.72183 8.22182C8.72183 8.22182 7.1989 9.74476 6.36402 11.7186C6.36402 11.7186 5.5 13.7614 5.5 16C5.5 16 5.5 18.2386 6.36402 20.2814C6.36402 20.2814 7.19889 22.2552 8.72183 23.7782C8.72183 23.7782 10.2448 25.3011 12.2186 26.136C12.2186 26.136 14.2614 27 16.5 27C16.5 27 18.7386 27 20.7814 26.136C20.7814 26.136 22.7552 25.3011 24.2782 23.7782C24.2782 23.7782 25.8011 22.2552 26.636 20.2814C26.636 20.2814 27.5 18.2386 27.5 16C27.5 16 27.5 13.7614 26.636 11.7186C26.636 11.7186 25.8011 9.74476 24.2782 8.22183C24.2782 8.22183 22.7552 6.69889 20.7814 5.86402C20.7814 5.86402 18.7386 5 16.5 5Z" fill="#E8705C"/>
<path d="M22.1569 10.3431C19.8137 8 16.5 8 16.5 8C13.1863 8 10.8431 10.3431 10.8431 10.3431C8.5 12.6863 8.5 16 8.5 16C8.5 19.3137 10.8431 21.6569 10.8431 21.6569C13.1863 24 16.5 24 16.5 24C19.8137 24 22.1569 21.6569 22.1569 21.6569C24.5 19.3137 24.5 16 24.5 16C24.5 12.6863 22.1569 10.3431 22.1569 10.3431Z" fill="#E8705C"/>
</svg>
