<svg width="25" height="24" viewBox="0 0 25 24" fill="none" xmlns="http://www.w3.org/2000/svg">
<g clip-path="url(#clip0_24_9819)">
<path fill-rule="evenodd" clip-rule="evenodd" d="M22.268 20.0104C22.268 20.6401 21.676 21.143 21.0143 21.143H17.4143C17.2639 21.1465 17.1144 21.1197 16.9746 21.0642C16.8349 21.0088 16.7077 20.9257 16.6007 20.82C16.4937 20.7143 16.4091 20.5881 16.352 20.449C16.2948 20.3099 16.2662 20.1608 16.268 20.0104V16.5818C16.2657 16.4303 16.2937 16.2799 16.3504 16.1394C16.4071 15.9989 16.4914 15.8712 16.5982 15.7638C16.705 15.6563 16.8322 15.5713 16.9724 15.5138C17.1125 15.4562 17.2628 15.4273 17.4143 15.4287H21.0143C21.6771 15.4287 22.268 15.9521 22.268 16.5818V20.0104ZM21.0143 13.143H17.4143C15.4257 13.143 13.868 14.6881 13.868 16.5818V20.0104C13.868 21.9041 15.4257 23.4287 17.4143 23.4287H21.0143C23.0028 23.4287 24.668 21.9041 24.668 20.0104V16.5818C24.668 14.6881 23.0028 13.143 21.0143 13.143ZM9.06797 20.0104C9.06797 20.6401 8.47597 21.143 7.81425 21.143H4.21425C4.06391 21.1465 3.9144 21.1197 3.77463 21.0642C3.63486 21.0088 3.50769 20.9257 3.40072 20.82C3.29374 20.7143 3.20915 20.5881 3.15198 20.449C3.09481 20.3099 3.06624 20.1608 3.06797 20.0104V16.5818C3.06568 16.4303 3.09371 16.2799 3.15042 16.1394C3.20713 15.9989 3.29136 15.8712 3.39817 15.7638C3.50498 15.6563 3.63221 15.5713 3.77236 15.5138C3.91251 15.4562 4.06276 15.4273 4.21425 15.4287H7.81425C8.47711 15.4287 9.06797 15.9521 9.06797 16.5818V20.0104ZM7.81425 13.143H4.21425C2.22568 13.143 0.667969 14.6881 0.667969 16.5818V20.0104C0.667969 21.9041 2.22568 23.4287 4.21425 23.4287H7.81425C9.80283 23.4287 11.468 21.9041 11.468 20.0104V16.5818C11.468 14.6881 9.80283 13.143 7.81425 13.143ZM22.268 7.43896C22.268 8.06868 21.676 8.57153 21.0143 8.57153H17.4143C17.2639 8.57507 17.1144 8.5483 16.9746 8.49281C16.8349 8.43732 16.7077 8.35425 16.6007 8.24856C16.4937 8.14286 16.4091 8.0167 16.352 7.87761C16.2948 7.73852 16.2662 7.58934 16.268 7.43896V4.01039C16.2657 3.8589 16.2937 3.70849 16.3504 3.568C16.4071 3.4275 16.4914 3.29977 16.5982 3.19233C16.705 3.08488 16.8322 2.99988 16.9724 2.94233C17.1125 2.88479 17.2628 2.85586 17.4143 2.85725H21.0143C21.6771 2.85725 22.268 3.38068 22.268 4.01039V7.43896ZM21.0143 0.571533H17.4143C15.4257 0.571533 13.868 2.11668 13.868 4.01039V7.43896C13.868 9.33268 15.4257 10.8572 17.4143 10.8572H21.0143C23.0028 10.8572 24.668 9.33268 24.668 7.43896V4.01039C24.668 2.11668 23.0028 0.571533 21.0143 0.571533ZM9.06797 7.43896C9.06797 8.06868 8.47597 8.57153 7.81425 8.57153H4.21425C4.06391 8.57507 3.9144 8.5483 3.77463 8.49281C3.63486 8.43732 3.50769 8.35425 3.40072 8.24856C3.29374 8.14286 3.20915 8.0167 3.15198 7.87761C3.09481 7.73852 3.06624 7.58934 3.06797 7.43896V4.01039C3.06568 3.8589 3.09371 3.70849 3.15042 3.568C3.20713 3.4275 3.29136 3.29977 3.39817 3.19233C3.50498 3.08488 3.63221 2.99988 3.77236 2.94233C3.91251 2.88479 4.06276 2.85586 4.21425 2.85725H7.81425C8.47711 2.85725 9.06797 3.38068 9.06797 4.01039V7.43896ZM7.81425 0.571533H4.21425C2.22568 0.571533 0.667969 2.11668 0.667969 4.01039V7.43896C0.667969 9.33268 2.22568 10.8572 4.21425 10.8572H7.81425C9.80283 10.8572 11.468 9.33268 11.468 7.43896V4.01039C11.468 2.11668 9.80283 0.571533 7.81425 0.571533Z" fill="#FFF2F0"/>
</g>
<defs>
<clipPath id="clip0_24_9819">
<rect width="24" height="22.8571" fill="white" transform="translate(0.667969 0.571533)"/>
</clipPath>
</defs>
</svg>
